<svg xmlns="http://www.w3.org/2000/svg"  viewBox="0 0 64 64" width="64px" height="64px"><path fill="#f283a5" d="M32.135,4C16.347,4,9,21.836,9,27c0,4.843,1.797,7.346,1.797,7.346l42.497-0.001 c0,0,1.706-2.044,1.706-7.345C55,21.698,47.378,4,32.135,4z"/><path fill="#faefde" d="M49,49.719c0,2.023-1.102,3.886-2.876,4.86l-9.879,5.423c-2.696,1.269-5.81,1.302-8.533,0.092 l-9.87-5.508C16.088,53.607,15,51.755,15,49.745V30l11.425-4.142c3.613-1.204,7.525-1.17,11.116,0.098L49,30V49.719z"/><path fill="#8d6c9f" d="M53.293,35.345c-0.226,0-0.453-0.076-0.64-0.232c-0.424-0.354-0.481-0.984-0.127-1.408 C52.533,33.696,54,31.785,54,27c0-4.354-7.032-22-21.864-22C16.864,5,10,22.488,10,27c0,4.414,1.598,6.745,1.613,6.768 c0.315,0.45,0.21,1.074-0.238,1.392c-0.449,0.316-1.067,0.217-1.39-0.229C9.904,34.817,8,32.106,8,27c0-5.59,7.523-24,24.136-24 C47.795,3,56,20.832,56,27c0,5.505-1.74,7.749-1.938,7.986C53.864,35.223,53.58,35.345,53.293,35.345z"/><path fill="none" d="M59.163,22c-2.086-7.136-8.034-16.859-17.475-21"/><path fill="#8d6c9f" d="M56.864,19.627c-0.387,0-0.755-0.226-0.919-0.603c-0.219-0.507,0.014-1.096,0.521-1.315 l1.835-0.795c0.511-0.221,1.096,0.014,1.315,0.52c0.219,0.507-0.014,1.096-0.521,1.315l-1.835,0.795 C57.131,19.6,56.996,19.627,56.864,19.627z"/><path fill="#8d6c9f" d="M54.622,15.286c-0.339,0-0.67-0.172-0.857-0.484c-0.285-0.473-0.133-1.087,0.34-1.373 l1.713-1.033c0.475-0.286,1.089-0.133,1.373,0.34c0.285,0.473,0.133,1.087-0.34,1.373l-1.713,1.033 C54.976,15.239,54.798,15.286,54.622,15.286z"/><path fill="#8d6c9f" d="M51.825,11.281c-0.293,0-0.583-0.127-0.78-0.374c-0.346-0.43-0.277-1.06,0.152-1.406 l1.559-1.253c0.43-0.347,1.061-0.278,1.406,0.153c0.346,0.43,0.277,1.06-0.152,1.406l-1.559,1.253 C52.267,11.209,52.045,11.281,51.825,11.281z"/><path fill="#8d6c9f" d="M48.507,7.719c-0.242,0-0.484-0.087-0.677-0.264c-0.406-0.374-0.434-1.006-0.06-1.413 l1.354-1.472c0.375-0.407,1.007-0.432,1.413-0.06c0.406,0.374,0.434,1.006,0.06,1.413l-1.354,1.472 C49.046,7.61,48.776,7.719,48.507,7.719z"/><path fill="#8d6c9f" d="M44.68,4.747c-0.185,0-0.372-0.051-0.539-0.158c-0.465-0.298-0.6-0.917-0.302-1.382l1.08-1.683 c0.298-0.466,0.917-0.6,1.382-0.302s0.6,0.917,0.302,1.382l-1.08,1.683C45.331,4.585,45.009,4.747,44.68,4.747z"/><path fill="#8d6c9f" d="M28.781,14.894c0,0-1.735-1.119-1.781-1.28c-0.046-0.161,2.922-6.56,2.922-6.56l2.054,2.507 L34.123,7L37,13.613L35.219,15l-1.415-5.333l-1.735,2.507l-1.918-2.561L28.781,14.894z"/><path fill="#ed7899" d="M50,31c-19-15-36,0-36,0s-1.397-3.364-1-4c10-16,34-10,38,0C51.383,27.957,50.809,31.639,50,31z"/><path fill="#8d6c9f" d="M14.267,32.181c-0.028,0-0.058-0.001-0.087-0.004c-0.273-0.024-0.526-0.16-0.697-0.375 C13.422,31.725,12,29.9,12,27.297C12,25.956,16.224,16,32,16c2.977,0,5.771,0.411,8.305,1.221 c0.526,0.168,0.816,0.731,0.647,1.257c-0.168,0.526-0.728,0.816-1.257,0.648C37.358,18.379,34.77,18,32,18 c-13.42,0-17.764,7.912-18.004,9.368c0.002,0.93,0.276,1.742,0.546,2.315C16.832,27.98,23.132,24,32,24 c8.864,0,15.162,3.977,17.455,5.681C49.724,29.1,50,28.267,50,27.297c-0.015-0.046-0.235-0.74-0.891-1.755 c-0.3-0.464-0.166-1.083,0.298-1.383c0.462-0.299,1.083-0.166,1.382,0.298c0.735,1.14,1.211,2.254,1.211,2.84 c0,2.603-1.422,4.428-1.482,4.504c-0.171,0.215-0.423,0.351-0.696,0.375c-0.269,0.022-0.546-0.065-0.752-0.248 C49.003,31.869,42.254,26,32,26c-10.289,0-17.002,5.868-17.068,5.928C14.748,32.091,14.511,32.181,14.267,32.181z M46.999,23 c-0.227,0-0.455-0.077-0.643-0.234c-0.882-0.74-1.841-1.406-2.85-1.979c-0.48-0.272-0.649-0.883-0.377-1.363 s0.885-0.65,1.363-0.376c1.115,0.632,2.175,1.368,3.15,2.187c0.423,0.355,0.478,0.986,0.122,1.409 C47.568,22.878,47.285,23,46.999,23z"/><path fill="#8d6c9f" d="M28.001,32c-0.362,0-0.712-0.197-0.89-0.542c-0.06-0.114-1.332-2.47-3.953-2.47 c-1.833,0-3.522,1.308-3.539,1.321c-0.433,0.34-1.062,0.265-1.403-0.167c-0.341-0.433-0.27-1.06,0.163-1.402 c0.09-0.072,2.238-1.753,4.779-1.753c3.87,0,5.658,3.411,5.732,3.556c0.251,0.492,0.057,1.094-0.436,1.346 C28.31,31.965,28.154,32,28.001,32z"/><path fill="#8d6c9f" d="M25,34c-1.104-0.001-1.999,1.342-2,2.999c-0.001,1.657,0.894,3.001,1.998,3.001 c0.001,0,0.001,0,0.002,0c1.104,0.001,1.999-1.342,2-2.999c0.001-1.657-0.894-3.001-1.998-3.001C25.001,34,25.001,34,25,34z"/><path fill="#8d6c9f" d="M35.999,32c-0.153,0-0.309-0.035-0.454-0.109c-0.492-0.251-0.687-0.854-0.436-1.346 c0.074-0.145,1.862-3.556,5.732-3.556c2.541,0,4.689,1.681,4.779,1.753c0.433,0.343,0.506,0.972,0.162,1.405 c-0.342,0.432-0.969,0.506-1.403,0.163c-0.035-0.028-1.716-1.321-3.538-1.321c-2.66,0-3.938,2.442-3.951,2.466 C36.714,31.801,36.363,32,35.999,32z"/><path fill="#efd8be" d="M9.499,34c1.426,0,3.779,0.483,5.501,2.55l-0.963,12.291C13.691,48.936,13.325,49,12.964,49 C10.468,49,7,43.822,7,38.945C7,35.736,8.237,34,9.499,34z"/><path fill="#8d6c9f" d="M39,34c-1.104-0.001-1.999,1.342-2,2.999s0.894,3.001,1.998,3.001c0.001,0,0.001,0,0.002,0 c1.104,0.001,1.999-1.342,2-2.999S40.106,34.001,39.002,34C39.001,34,39.001,34,39,34z"/><path fill="#8d6c9f" d="M32,61.95c-3.932,0-5.774-1.117-7.726-2.299c-0.521-0.315-1.058-0.642-1.663-0.959 c-0.328-0.172-0.725-0.349-1.164-0.547c-2.979-1.338-8.522-3.83-8.522-11.646c0-1.626,0.419-4.141,0.788-6.359 c0.275-1.651,0.535-3.21,0.535-3.9c0-1.57-0.73-4.797-1.171-5.854c-0.213-0.51,0.028-1.095,0.538-1.308s1.095,0.027,1.308,0.538 c0.523,1.255,1.325,4.722,1.325,6.624c0,0.856-0.261,2.419-0.562,4.229c-0.357,2.142-0.762,4.57-0.762,6.031 c0,6.522,4.419,8.507,7.343,9.821c0.48,0.216,0.914,0.412,1.273,0.601c0.644,0.338,1.217,0.685,1.77,1.02 c1.854,1.123,3.316,2.01,6.689,2.01c0.553,0,1,0.448,1,1S32.553,61.95,32,61.95z"/><g><path fill="#8d6c9f" d="M46.127,42.038c-1.191,1.75-3.284,2.805-6.404,3.382c-0.711,3.131-3.896,5.492-7.722,5.492 c-3.829,0-7.018-2.367-7.724-5.502c-5.85-1.109-6.37-3.41-6.37-3.41S17,42.706,17,45.849c0,3.703,2.896,3.891,2.896,3.891 s0.32,3.588,3.397,3.588c1.329,0,2.103-0.567,2.205-0.617c0.173,0.183,1.56,2.289,3.67,2.289c1.64,0,2.798-1.016,2.798-1.016 s1.282,0.962,3.031,0.962c1.984,0,3.508-2.198,3.508-2.198s0.789,0.574,2.292,0.574c1.504,0,2.993-1.082,3.371-3.624 c1.223,0,2.832-1.632,2.832-3.739C47,42.8,46.127,42.038,46.127,42.038z"/></g><g><ellipse cx="32" cy="44.5" fill="#efd8be" rx="8" ry="6.5"/></g><g><path fill="#efd8be" d="M54.501,34c-1.426,0-3.779,0.483-5.501,2.55l0.963,12.291C50.309,48.936,50.675,49,51.036,49 C53.532,49,57,43.822,57,38.945C57,35.736,55.763,34,54.501,34z"/></g><g><path fill="#8d6c9f" d="M32,61.95c-0.553,0-1-0.448-1-1s0.447-1,1-1c3.372,0,4.834-0.887,6.687-2.009 c0.554-0.335,1.126-0.682,1.771-1.02c0.36-0.189,0.793-0.384,1.273-0.6c2.924-1.313,7.344-3.299,7.344-9.822 c0-1.461-0.404-3.889-0.762-6.031c-0.302-1.81-0.562-3.373-0.562-4.229c0-1.899,0.803-5.367,1.327-6.624 c0.214-0.51,0.8-0.75,1.308-0.538c0.51,0.212,0.751,0.798,0.538,1.308c-0.441,1.059-1.173,4.286-1.173,5.854 c0,0.69,0.26,2.25,0.535,3.9c0.37,2.218,0.789,4.733,0.789,6.359c0,7.817-5.546,10.308-8.524,11.646 c-0.439,0.197-0.835,0.374-1.163,0.546c-0.605,0.317-1.144,0.644-1.664,0.959C37.772,60.833,35.931,61.95,32,61.95z M32,52 c-4.963,0-9-3.364-9-7.5s4.037-7.5,9-7.5s9,3.364,9,7.5S36.963,52,32,52z M32,39c-3.859,0-7,2.467-7,5.5s3.141,5.5,7,5.5 s7-2.467,7-5.5S35.859,39,32,39z M12.964,50C9.71,50,6,44.111,6,38.945C6,34.86,7.813,33,9.499,33c1.156,0,4.082,0.284,6.27,2.91 c0.354,0.425,0.296,1.055-0.129,1.409c-0.424,0.354-1.054,0.295-1.408-0.128C12.539,35.158,10.182,35,9.499,35 C8.992,35,8,36.191,8,38.945C8,43.436,11.185,48,12.964,48c0.237,0,0.51-0.042,0.811-0.123c0.533-0.145,1.082,0.169,1.228,0.703 c0.145,0.533-0.17,1.083-0.702,1.227C13.828,49.935,13.379,50,12.964,50z"/></g><g><path fill="#8d6c9f" d="M51.036,50c-0.415,0-0.864-0.065-1.336-0.193c-0.532-0.145-0.847-0.694-0.702-1.227 c0.146-0.533,0.695-0.846,1.228-0.703C50.526,47.958,50.799,48,51.036,48C52.815,48,56,43.436,56,38.945 C56,36.191,55.008,35,54.501,35c-0.683,0-3.04,0.158-4.732,2.19c-0.354,0.424-0.984,0.483-1.408,0.128 c-0.425-0.354-0.482-0.984-0.129-1.409c2.188-2.626,5.113-2.91,6.27-2.91C56.187,33,58,34.86,58,38.945 C58,44.111,54.29,50,51.036,50z"/></g></svg>